<svg width="327" height="44" viewBox="0 0 327 44" fill="none" xmlns="http://www.w3.org/2000/svg">
<path d="M67.1893 18.1566C69.9431 19.8836 70.97 22.5441 70.5032 26.2781C69.5697 33.7927 63.362 36.5933 56.2207 36.5933H42.7316C42.2648 36.5933 42.0315 36.2665 42.0781 35.7998L46.3722 1.16688C46.4189 0.700126 46.7456 0.373401 47.2124 0.373401H60.2347C68.4029 0.373401 72.7903 2.94053 71.8568 10.5952C71.4367 14.0025 69.8965 16.2896 67.236 17.6899C67.0026 17.8299 67.0026 18.0633 67.1893 18.1566ZM61.2149 25.2512C61.4016 23.3375 60.3281 22.3574 58.041 22.3574H53.4202C53.2801 22.3574 53.0934 22.4507 53.0934 22.6841L52.44 28.005C52.44 28.1917 52.4867 28.3318 52.72 28.3318H57.2475C59.5813 28.2851 60.9349 27.2582 61.2149 25.2512ZM54.7737 9.05496L54.167 14.1425C54.167 14.3292 54.2136 14.4693 54.447 14.4693H58.5078C60.8882 14.4693 62.2884 13.4891 62.4751 11.6221C62.7552 9.75509 61.5883 8.77491 59.1612 8.77491H55.1471C55.0071 8.72824 54.8204 8.82159 54.7737 9.05496ZM73.0237 23.6643L74.3306 13.209C75.3108 5.27428 81.4719 0 89.78 0C98.0882 0 103.036 4.94756 102.102 12.4622C102.102 12.789 101.729 12.9757 101.309 13.0223L93.2807 13.5358C92.7672 13.5824 92.5805 13.4424 92.5805 13.2557L92.6272 12.929C93.0006 10.1285 91.4604 8.26149 88.7999 8.26149C86.0927 8.26149 84.1324 10.1285 83.8056 12.929L82.4521 24.0377C82.0787 26.7915 83.6189 28.6585 86.2794 28.6585C88.9866 28.6585 90.9469 26.7915 91.227 24.0377C91.2737 23.6643 91.6004 23.4309 92.0671 23.4776L99.9552 23.8976C100.422 23.9443 100.702 23.991 100.702 24.1777L100.655 24.4577C99.7218 32.0191 93.5607 37.0133 85.2526 37.0133C76.8977 37.0133 72.0435 31.6924 73.0237 23.6643ZM124.926 0.420076H132.908C133.328 0.420076 133.561 0.746801 133.515 1.21355L129.267 35.8465C129.22 36.3132 128.847 36.6399 128.427 36.6399H120.446C120.025 36.6399 119.792 36.3132 119.839 35.8465L121.426 22.7774C121.426 22.5907 121.379 22.4507 121.146 22.4507H113.398C113.211 22.4507 113.071 22.5441 113.071 22.7774L111.484 35.8465C111.437 36.3132 111.064 36.6399 110.597 36.6399H102.709C102.242 36.6399 102.009 36.3132 102.056 35.8465L106.396 1.16688C106.443 0.700126 106.77 0.373401 107.237 0.373401H115.171C115.638 0.373401 115.871 0.700126 115.825 1.16688L114.284 13.7691C114.238 13.9558 114.331 14.0959 114.565 14.0959H122.266C122.453 14.0959 122.593 14.0025 122.639 13.7691L124.18 1.16688C124.18 0.746801 124.506 0.420076 124.926 0.420076Z" fill="#474652"/>
<path d="M133.094 35.8465L137.388 1.21356C137.435 0.746811 137.762 0.420086 138.229 0.420086H151.111C159.326 0.420086 164.273 5.08759 163.433 12.0422L161.893 24.9712C161.006 31.9258 154.892 36.5933 146.677 36.5933H133.795C133.281 36.5933 133.048 36.2665 133.094 35.8465ZM143.736 28.2851H148.03C150.271 28.2851 152.091 26.3247 152.558 23.3375L153.725 13.7225C154.098 10.7353 152.745 8.77492 150.317 8.77492H146.117C145.93 8.77492 145.79 8.86827 145.743 9.10165L143.41 28.005C143.456 28.1917 143.503 28.2851 143.736 28.2851ZM10.759 12.4623C9.54549 12.4623 8.98539 11.9488 9.45214 11.2954C9.96556 10.6419 11.3658 10.1285 12.5327 10.1285H37.1305C38.344 10.1285 39.2308 10.6419 39.1375 11.2954C39.0441 11.9488 37.9706 12.4623 36.7571 12.4623H10.759ZM1.4707 18.1566C0.25715 18.1566 -0.302951 17.6432 0.1638 16.9897C0.63055 16.3363 2.0308 15.8695 3.24435 15.8695H36.3836C37.5972 15.8695 38.5307 16.383 38.4374 17.0364C38.344 17.6899 37.3172 18.2033 36.1036 18.2033L1.4707 18.1566ZM16.4534 23.851C15.2398 23.851 14.5397 23.3375 14.9131 22.6841C15.2865 22.0306 16.5467 21.5172 17.7603 21.5172H35.7769C36.9904 21.5172 37.9239 22.0306 37.8306 22.6841C37.7372 23.3375 36.6637 23.851 35.4968 23.851H16.4534Z" fill="#24E6AA"/>
<path d="M177 35.4966H195.599L196.429 31.7281H182.126L184.762 19.3595H197.698L198.528 15.591H185.592L187.886 4.76854H201.604L202.434 1H184.42L177 35.4966Z" fill="#474652"/>
<path d="M207.115 22.0169L197.058 35.4966H201.55L208.774 25.2539L211.801 35.4966H216.292L212.094 22.0169L221.613 9.6H217.122L210.337 18.8281L207.603 9.6H203.112L207.115 22.0169Z" fill="#474652"/>
<path d="M225.921 22.5483C227.191 16.6539 228.85 12.4022 233.39 12.4022C237.198 12.4022 237.296 16.364 236.075 22.0652C234.66 28.7326 232.805 32.6944 228.997 32.6944C224.603 32.6944 224.847 27.573 225.921 22.5483ZM217.476 44H221.577L224.018 32.5494H224.115C224.555 34.7719 226.458 36.173 228.802 36.173C235.587 36.173 239.102 27.9596 240.371 22.0652C242.031 14.3831 240.859 8.9236 234.66 8.9236C231.828 8.9236 229.095 10.8562 228.167 12.7888H228.069L228.753 9.6H224.847L217.476 44Z" fill="#474652"/>
<path d="M242.123 35.4966H246.224L253.644 1H249.544L242.123 35.4966Z" fill="#474652"/>
<path d="M253.356 22.5483C251.794 29.8438 252.282 36.173 259.849 36.173C267.367 36.173 270.637 29.8438 272.2 22.5483C273.762 15.2528 273.274 8.9236 265.707 8.9236C258.189 8.9236 254.918 15.2528 253.356 22.5483ZM260.435 32.9843C256.236 32.9843 256.432 28.1528 257.652 22.5483C258.873 16.9438 260.776 12.1124 264.926 12.1124C269.319 12.1124 269.124 16.9438 267.904 22.5483C266.683 28.1528 264.779 32.9843 260.435 32.9843Z" fill="#474652"/>
<path d="M273.534 35.4966H277.635L281.149 19.118C282.077 14.818 285.787 12.982 287.837 12.982C289.155 12.982 289.595 13.127 289.985 13.1753L290.864 9.21348C290.473 9.02022 289.936 8.9236 289.107 8.9236C286.178 8.9236 284.176 11.0011 282.467 13.4652H282.37L283.2 9.6H279.099L273.534 35.4966Z" fill="#474652"/>
<path d="M294.911 19.8427L295.106 18.8764C295.448 17.3303 297.059 12.1124 301.355 12.1124C304.967 12.1124 305.162 15.5427 304.528 18.4416L304.235 19.8427H294.911ZM307.847 23.0315L308.189 21.3888C309.41 15.8326 310.142 8.9236 302.136 8.9236C294.081 8.9236 291.201 16.4124 289.785 22.8865C287.881 31.7764 289.639 36.173 296.034 36.173C303.161 36.173 306.188 29.7472 306.773 26.9933H302.673C302.282 28.9258 300.867 32.9843 296.961 32.9843C291.933 32.9843 293.202 26.9933 294.081 23.0315H307.847Z" fill="#474652"/>
<path d="M309.67 35.4966H313.771L317.285 19.118C318.213 14.818 321.923 12.982 323.973 12.982C325.291 12.982 325.731 13.127 326.121 13.1753L327 9.21348C326.609 9.02022 326.072 8.9236 325.243 8.9236C322.314 8.9236 320.312 11.0011 318.603 13.4652H318.506L319.336 9.6H315.235L309.67 35.4966Z" fill="#474652"/>
</svg>
